<?xml version="1.0" encoding="UTF-8"?>
<!DOCTYPE svg PUBLIC "-//W3C//DTD SVG 1.1//EN" "http://www.w3.org/Graphics/SVG/1.1/DTD/svg11.dtd">
<!-- Creator: CorelDRAW 2018 (64 Bit Versão de avaliação) -->
<svg xmlns="http://www.w3.org/2000/svg" xml:space="preserve" width="128px" height="128px" version="1.1" style="shape-rendering:geometricPrecision; text-rendering:geometricPrecision; image-rendering:optimizeQuality; fill-rule:evenodd; clip-rule:evenodd"
viewBox="0 0 10.87 10.87"
 xmlns:xlink="http://www.w3.org/1999/xlink">
 <defs>
  <style type="text/css">
   <![CDATA[
    .fil2 {fill:none}
    .fil0 {fill:#4D4D4D}
    .fil1 {fill:white}
   ]]>
  </style>
 </defs>
 <g id="Camada_x0020_1">
  <metadata id="CorelCorpID_0Corel-Layer"/>
  <g id="_1531226080960">
   <path class="fil0" d="M2.93 1.23l6.45 0c0.39,0 0.7,0.26 0.7,0.58l0 7.56c0,0.32 -0.31,0.58 -0.7,0.58l-8.63 0c-0.38,0 -0.7,-0.26 -0.7,-0.58 0,-2.82 -0.01,-5.63 -0.01,-8.45l2.89 0 0 0.31z"/>
   <path class="fil0" d="M1.64 1.64c1.43,0.01 2.86,0.01 4.29,0.02 1.42,0.01 2.84,0.02 4.26,0.02 0.38,0.01 0.67,0.27 0.64,0.58 -0.12,1.18 -0.23,2.36 -0.35,3.54 -0.11,1.19 -0.23,2.38 -0.34,3.57 -0.03,0.32 -0.37,0.58 -0.76,0.58 -1.43,0 -2.86,0 -4.3,0 -1.44,0 -2.88,0 -4.33,0 -0.38,0 -0.67,-0.26 -0.64,-0.58 0.13,-1.2 0.26,-2.4 0.39,-3.6 0.13,-1.19 0.26,-2.37 0.39,-3.56 0.03,-0.32 0.37,-0.57 0.75,-0.57zm0.21 0.22c1.35,0.01 2.71,0.01 4.05,0.02 1.35,0.01 2.7,0.02 4.04,0.02 0.36,0.01 0.63,0.25 0.6,0.55 -0.11,1.11 -0.22,2.23 -0.32,3.35 -0.11,1.12 -0.22,2.25 -0.33,3.38 -0.03,0.3 -0.35,0.55 -0.71,0.55 -1.36,0 -2.72,0 -4.08,0 -1.36,0 -2.73,0 -4.1,0 -0.36,0 -0.63,-0.25 -0.6,-0.55 0.12,-1.14 0.24,-2.27 0.37,-3.4 0.12,-1.13 0.24,-2.26 0.36,-3.38 0.03,-0.3 0.35,-0.54 0.72,-0.54z"/>
   <path class="fil1" d="M1.85 1.86c1.35,0.01 2.71,0.01 4.05,0.02 1.35,0.01 2.7,0.02 4.04,0.02 0.36,0.01 0.63,0.25 0.6,0.55 -0.11,1.11 -0.22,2.23 -0.32,3.35 -0.11,1.12 -0.22,2.25 -0.33,3.38 -0.03,0.3 -0.35,0.55 -0.71,0.55 -1.36,0 -2.72,0 -4.08,0 -1.36,0 -2.73,0 -4.1,0 -0.36,0 -0.63,-0.25 -0.6,-0.55 0.12,-1.14 0.24,-2.27 0.37,-3.4 0.12,-1.13 0.24,-2.26 0.36,-3.38 0.03,-0.3 0.35,-0.54 0.72,-0.54z"/>
  </g>
  <rect class="fil2" width="10.87" height="10.87"/>
 </g>
</svg>
